<?xml version="1.0" encoding="utf-8"?>
<!-- Generator: Adobe Illustrator 27.5.0, SVG Export Plug-In . SVG Version: 6.00 Build 0)  -->
<svg version="1.1" xmlns="http://www.w3.org/2000/svg" xmlns:xlink="http://www.w3.org/1999/xlink" x="0px" y="0px"
	 viewBox="0 0 600 500" style="enable-background:new 0 0 600 500;" xml:space="preserve">
<g id="BACKGROUND">
	<rect style="fill:#FFFFFF;" width="600" height="500"/>
</g>
<g id="OBJECTS">
	<g>
		<path style="fill:#BEDCE0;" d="M154.873,172.779H88.168c-2.398,0-4.342-1.944-4.342-4.342v-10.538
			c0-16.823,14.42-29.14,28.64-15.171c12.216-11.716,26.635-0.451,26.635,10.514c9.81-3.317,18.229,2.523,20.059,14.485
			C159.566,170.377,157.553,172.779,154.873,172.779z"/>
		<g>
			<g>
				<polygon style="fill:#BEDCE0;" points="111.648,347.253 98.876,419.312 106.557,419.312 125.649,347.253 				"/>
				<polygon style="fill:#A4CACF;" points="123.823,354.143 108.995,362.219 111.648,347.253 125.649,347.253 				"/>
			</g>
			<g>
				<polygon style="fill:#BEDCE0;" points="138.422,347.253 125.649,419.312 133.331,419.312 152.423,347.253 				"/>
				<polygon style="fill:#A4CACF;" points="150.597,354.143 135.769,362.219 138.422,347.253 152.423,347.253 				"/>
			</g>
			<g>
				<polygon style="fill:#BEDCE0;" points="208.672,347.253 221.445,419.312 213.763,419.312 194.672,347.253 				"/>
				<polygon style="fill:#A4CACF;" points="196.497,354.143 211.325,362.219 208.672,347.253 194.672,347.253 				"/>
			</g>
			<g>
				<polygon style="fill:#BEDCE0;" points="181.899,347.253 194.672,419.312 186.99,419.312 167.898,347.253 				"/>
				<polygon style="fill:#A4CACF;" points="169.724,354.143 184.552,362.219 181.899,347.253 167.898,347.253 				"/>
			</g>
			<path style="fill:#BEDCE0;" d="M178.95,340.411h-66.156L90.81,254.918c-0.56-2.177,1.084-4.297,3.332-4.297h59.052
				c1.57,0,2.941,1.063,3.332,2.583L178.95,340.411z"/>
			<polygon style="fill:#A4CACF;" points="104.417,307.834 173.95,320.966 178.95,340.411 112.795,340.411 			"/>
			<path style="fill:#BEDCE0;" d="M213.808,347.253h-107.25l0,0c0-10.968,8.891-19.86,19.86-19.86h67.531
				C204.916,327.393,213.808,336.284,213.808,347.253L213.808,347.253z"/>
		</g>
		<g>
			<g>
				<path style="fill:#DE6767;" d="M192.776,328.192l-4.799,63.722l7.066,16.364l10.988,11.009l-10.917,0.017
					c-2.57,0.004-5.056-0.917-7.003-2.595l-7.475-6.443l0.014,9.006l-2.947,0.005l-2.424-14.695c-0.2-1.214-0.15-2.455,0.146-3.649
					l2.724-10.968l-5.335-62.545L192.776,328.192z"/>
				<path style="fill:#1B2536;" d="M177.702,419.276l2.947-0.004l-0.014-9.006l7.475,6.443c1.947,1.678,4.433,2.599,7.003,2.595
					l10.917-0.017l-10.988-11.009l-3.537-8.19l-6.826,4.604l-8.167-8.143l-1.089,4.383c-0.297,1.194-0.346,2.436-0.146,3.649
					L177.702,419.276z"/>
			</g>
			<g>
				<path style="fill:#DE6767;" d="M132.576,328.197l-8.361,63.714l-10.449,16.375l-13.266,11.026h10.917
					c2.57,0,5.247-0.925,7.541-2.606l8.809-6.455l-1.874,9.006h2.948l5.46-14.699c0.451-1.214,0.658-2.456,0.608-3.649l-0.46-10.964
					l18.256-62.553L132.576,328.197z"/>
				<path style="fill:#1B2536;" d="M128.842,419.258h-2.948l1.874-9.006l-8.809,6.455c-2.294,1.681-4.971,2.606-7.541,2.606h-10.917
					l13.266-11.026l5.229-8.196l5.877,4.593l9.852-8.155l0.184,4.381c0.05,1.193-0.157,2.435-0.608,3.649L128.842,419.258z"/>
			</g>
			<g>
				<path style="fill:#28364F;" d="M183.117,164.087c0.266,5.551,4.073,7.823,8.188,11.63c4.114,3.807,4.035,12.27-0.307,16.027
					c-5.465,4.728-34.9,1.841-39.362,1.412c-6.386-0.614-11.271-5.144-8.904-13.141c1.781-6.018,12.645-12.069,13.407-18.545
					L183.117,164.087z"/>
				<g>
					<path style="fill:#6E3C3C;" d="M209.275,215.755l-8.271-18.788c-2.309-5.245-6.816-9.203-12.315-10.816l-9.325-2.735h-20.661
						l-9.325,2.735c-5.499,1.613-10.006,5.571-12.315,10.816l-8.271,18.788h-9.579l1.584,11.658
						c0.851,6.266,6.202,10.939,12.526,10.939c4.947,0,9.439-2.885,11.496-7.383l3.869-8.46l2.579,8.351l-10.153,23.826h55.838
						L186.8,230.861l2.579-8.351l3.869,8.46c2.057,4.498,6.549,7.383,11.496,7.383c6.324,0,11.675-4.673,12.526-10.939l1.584-11.658
						H209.275z"/>
					
						<line style="fill:none;stroke:#1B2536;stroke-width:0.6759;stroke-miterlimit:10;" x1="142.125" y1="197.809" x2="148.688" y2="222.51"/>
					
						<line style="fill:none;stroke:#1B2536;stroke-width:0.6759;stroke-miterlimit:10;" x1="131.617" y1="216.533" x2="139.887" y2="228.487"/>
					
						<line style="fill:none;stroke:#1B2536;stroke-width:0.6759;stroke-miterlimit:10;" x1="195.943" y1="197.809" x2="189.379" y2="222.51"/>
					
						<line style="fill:none;stroke:#1B2536;stroke-width:0.6759;stroke-miterlimit:10;" x1="206.45" y1="216.533" x2="198.181" y2="228.487"/>
				</g>
				<polygon style="fill:#FFFFFF;" points="159.413,191.397 178.654,191.397 169.034,227.177 				"/>
				<g>
					<path style="fill:#D9956A;" d="M158.703,183.416l12.159,46.831l-10.804-13.041c-2.209-2.667-2.921-6.27-1.891-9.576
						l1.256-4.033l-3.609-5.236c-2.696-3.912-2.347-9.165,0.843-12.686L158.703,183.416z"/>
					<path style="fill:#D9956A;" d="M179.364,183.416l-12.159,46.831l10.804-13.041c2.209-2.667,2.921-6.27,1.891-9.576
						l-1.256-4.033l3.609-5.236c2.696-3.912,2.347-9.165-0.843-12.686L179.364,183.416z"/>
				</g>
				<path style="fill:#DE6767;" d="M174.697,179.805l-0.542-7.812h-5.121h-5.121l-0.542,7.812c-0.085,1.221-0.889,2.273-2.045,2.675
					l-2.69,0.936l2.794,10.935h7.604h7.604l2.794-10.935l-2.69-0.936C175.586,182.078,174.781,181.025,174.697,179.805z"/>
				<path style="fill:#28364F;" d="M174.609,178.535l-0.454-6.543h-5.121h-5.121l-0.272,3.916c1.737,1.876,4.218,3.172,7.53,3.172
					C172.441,179.08,173.578,178.876,174.609,178.535z"/>
				<path style="fill:#DE6767;" d="M179.724,161.815c-0.021-5.596-2.993-10.819-7.933-13.949l-2.757-1.746l-2.757,1.746
					c-4.94,3.13-7.912,8.353-7.933,13.949c-0.005,1.261-0.015,2.508-0.035,3.627c-0.087,4.995,3.139,11.79,10.725,11.79
					c7.586,0,10.812-6.796,10.725-11.79C179.739,164.323,179.728,163.076,179.724,161.815z"/>
				<g>
					<path style="fill:#D65353;" d="M165.939,168.369c0,1.131-0.917,2.048-2.048,2.048c-1.131,0-2.048-0.917-2.048-2.048
						s0.917-2.048,2.048-2.048C165.022,166.321,165.939,167.238,165.939,168.369z"/>
					<circle style="fill:#D65353;" cx="174.177" cy="168.369" r="2.048"/>
				</g>
				<path style="fill:#28364F;" d="M158.841,162.085c0,0,5.977-4.79,6.755-10.562c0,0,6.509,10.063,14.861,12.564h2.661
					c0,0,0.655-19.69-14.574-19.687c-9.418,0.002-13.018,11.79-12.404,17.071L158.841,162.085z"/>
				<g>
					<g>
						<path style="fill:#DE6767;" d="M159.708,162.601c1.513,1.966,1.456,4.547-0.126,5.765c-1.583,1.218-4.093,0.613-5.606-1.353
							c-1.513-1.966-1.456-4.547,0.126-5.765C155.685,160.03,158.195,160.635,159.708,162.601z"/>
						<path style="fill:none;stroke:#6E3C3C;stroke-width:0.5;stroke-miterlimit:10;" d="M154.566,163.354
							c0,0,2.866-2.17,4.79,2.538"/>
						
							<line style="fill:none;stroke:#6E3C3C;stroke-width:0.5;stroke-miterlimit:10;" x1="156.449" y1="165.319" x2="156.842" y2="162.855"/>
					</g>
					<g>
						<path style="fill:#DE6767;" d="M178.36,162.601c-1.513,1.966-1.456,4.547,0.127,5.765c1.583,1.218,4.093,0.613,5.606-1.353
							c1.513-1.966,1.456-4.547-0.126-5.765C182.383,160.03,179.873,160.635,178.36,162.601z"/>
						<path style="fill:none;stroke:#6E3C3C;stroke-width:0.5;stroke-miterlimit:10;" d="M183.502,163.354
							c0,0-2.866-2.17-4.79,2.538"/>
						
							<line style="fill:none;stroke:#6E3C3C;stroke-width:0.5;stroke-miterlimit:10;" x1="181.619" y1="165.319" x2="181.226" y2="162.855"/>
					</g>
				</g>
				<g>
					<path style="fill:#28364F;" d="M164.531,162.313c-0.803,0-1.453,0.651-1.453,1.453c0,0.141,0.027,0.275,0.064,0.404l1.021-0.2
						l-0.614,0.861c0.259,0.239,0.602,0.388,0.982,0.388c0.803,0,1.453-0.651,1.453-1.453
						C165.984,162.964,165.333,162.313,164.531,162.313z"/>
					<path style="fill:#28364F;" d="M173.537,162.313c0.803,0,1.453,0.651,1.453,1.453c0,0.141-0.026,0.275-0.064,0.404l-1.021-0.2
						l0.614,0.861c-0.259,0.239-0.602,0.388-0.982,0.388c-0.803,0-1.453-0.651-1.453-1.453
						C172.084,162.964,172.734,162.313,173.537,162.313z"/>
				</g>
				<g>
					<path style="fill:none;stroke:#28364F;stroke-miterlimit:10;" d="M162.29,161.348c0,0,2.415-1.474,4.339,0"/>
					<path style="fill:none;stroke:#28364F;stroke-miterlimit:10;" d="M175.778,161.348c0,0-2.415-1.474-4.339,0"/>
				</g>
				<polyline style="fill:none;stroke:#6E3C3C;stroke-width:0.5;stroke-miterlimit:10;" points="169.052,162.045 170.051,166.916 
					168.054,166.916 				"/>
				<path style="fill:#6E3C3C;" d="M165.523,168.84h7.023c0,0-0.59,4.421-3.511,4.421S165.523,168.84,165.523,168.84z"/>
				<path style="fill:#943232;" d="M169.034,170.774c-1.034,0-1.969,0.255-2.653,0.665c0.531,0.962,1.365,1.822,2.653,1.822
					c1.289,0,2.123-0.861,2.653-1.822C171.003,171.029,170.068,170.774,169.034,170.774z"/>
			</g>
			<path style="fill:#6E3C3C;" d="M196.953,254.687l-4.292,75.899c-8.479,2.702-19.778,0.029-31.814,0.997
				c-12.036,0.968-20.633,2.442-29.23,1.705l9.498-78.601H196.953z"/>
			<polygon style="fill:#1B2536;" points="133.444,318.172 193.694,312.318 194.916,290.713 136.762,290.713 			"/>
		</g>
		<g>
			<path style="fill:#4A75C9;" d="M236.61,308.783h-125.61c-4.823,0-8.733-3.91-8.733-8.734v-77.091c0-4.823,3.91-8.733,8.733-8.733
				h125.61c4.823,0,8.733,3.91,8.733,8.733v77.091C245.343,304.873,241.433,308.783,236.61,308.783z"/>
			<g>
				<rect x="119.832" y="279.746" style="fill:#BEDCE0;" width="8.783" height="10.967"/>
				<rect x="139.664" y="266.182" style="fill:#BEDCE0;" width="8.783" height="24.531"/>
				<rect x="159.497" y="256.176" style="fill:#BEDCE0;" width="8.783" height="34.537"/>
				<rect x="179.329" y="250.621" style="fill:#BEDCE0;" width="8.783" height="40.092"/>
				<rect x="199.161" y="236.726" style="fill:#BEDCE0;" width="8.783" height="53.987"/>
				<rect x="218.994" y="261.138" style="fill:#BEDCE0;" width="8.783" height="29.575"/>
				
					<rect x="119.832" y="255.611" style="fill:none;stroke:#28364F;stroke-width:0.5971;stroke-miterlimit:10;" width="8.783" height="35.102"/>
				
					<rect x="139.664" y="261.138" style="fill:none;stroke:#28364F;stroke-width:0.5481;stroke-miterlimit:10;" width="8.783" height="29.575"/>
				
					<rect x="159.497" y="241.652" style="fill:none;stroke:#28364F;stroke-width:0.7059;stroke-miterlimit:10;" width="8.783" height="49.062"/>
				
					<rect x="179.329" y="237.435" style="fill:none;stroke:#28364F;stroke-width:0.7356;stroke-miterlimit:10;" width="8.783" height="53.278"/>
				
					<rect x="199.161" y="228.388" style="fill:none;stroke:#28364F;stroke-width:0.7956;stroke-miterlimit:10;" width="8.783" height="62.325"/>
				
					<rect x="218.994" y="246.774" style="fill:none;stroke:#28364F;stroke-width:0.6681;stroke-miterlimit:10;" width="8.783" height="43.939"/>
				
					<line style="fill:none;stroke:#28364F;stroke-width:0.5481;stroke-miterlimit:10;" x1="110.985" y1="290.713" x2="236.624" y2="290.713"/>
			</g>
		</g>
		<g>
			<g>
				<polygon style="fill:#BEDCE0;" points="507.891,347.253 520.664,419.312 512.982,419.312 493.89,347.253 				"/>
				<polygon style="fill:#A4CACF;" points="495.716,354.143 510.544,362.219 507.891,347.253 493.89,347.253 				"/>
			</g>
			<g>
				<polygon style="fill:#BEDCE0;" points="481.118,347.253 493.89,419.312 486.209,419.312 467.117,347.253 				"/>
				<polygon style="fill:#A4CACF;" points="468.943,354.143 483.77,362.219 481.118,347.253 467.117,347.253 				"/>
			</g>
			<g>
				<polygon style="fill:#BEDCE0;" points="410.867,347.253 398.094,419.312 405.776,419.312 424.868,347.253 				"/>
				<polygon style="fill:#A4CACF;" points="423.042,354.143 408.214,362.219 410.867,347.253 424.868,347.253 				"/>
			</g>
			<g>
				<polygon style="fill:#BEDCE0;" points="437.641,347.253 424.868,419.312 432.55,419.312 451.641,347.253 				"/>
				<polygon style="fill:#A4CACF;" points="449.816,354.143 434.988,362.219 437.641,347.253 451.641,347.253 				"/>
			</g>
			<path style="fill:#BEDCE0;" d="M440.589,340.411h66.156l21.984-85.493c0.56-2.177-1.084-4.297-3.332-4.297h-59.052
				c-1.57,0-2.941,1.063-3.332,2.583L440.589,340.411z"/>
			<polygon style="fill:#A4CACF;" points="515.122,307.834 445.589,320.966 440.589,340.411 506.745,340.411 			"/>
			<path style="fill:#BEDCE0;" d="M405.732,347.253h107.25l0,0c0-10.968-8.891-19.86-19.859-19.86h-67.531
				C414.623,327.393,405.732,336.284,405.732,347.253L405.732,347.253z"/>
		</g>
		
			<line style="fill:none;stroke:#28364F;stroke-width:1.3993;stroke-miterlimit:10;" x1="58.638" y1="419.258" x2="549.157" y2="419.258"/>
		<g>
			<path style="fill:#946351;" d="M475.681,394.388l-0.229,11.003c-0.024,1.169,0.173,2.333,0.581,3.43l2.569,6.902
				c0.638,1.713-0.629,3.536-2.456,3.536h-26.413c-1.549,0-2.156-2.011-0.865-2.868l11.723-7.783
				c1.666-1.106,2.627-3.008,2.528-5.006l-0.455-9.213H475.681z"/>
			<path style="fill:#28364F;" d="M461.895,407.39c-0.366,0.464-0.799,0.881-1.305,1.217l-11.723,7.783
				c-1.291,0.857-0.684,2.868,0.865,2.868h26.413c1.827,0,3.094-1.823,2.456-3.536l-1.903-5.112l-6.689,1.066
				c-1.799,0.287-3.57-0.442-4.766-1.816C464.199,408.661,462.876,407.865,461.895,407.39z"/>
			<path style="fill:#946351;" d="M439.882,389.334l2.293,10.763c0.244,1.144,0.702,2.232,1.35,3.206l4.08,6.132
				c1.012,1.521,0.196,3.586-1.583,4.004l-25.713,6.041c-1.508,0.354-2.559-1.464-1.498-2.594l9.632-10.258
				c1.369-1.458,1.869-3.529,1.316-5.451l-2.55-8.865L439.882,389.334z"/>
			<path style="fill:#28364F;" d="M429.435,405.144c-0.251,0.535-0.576,1.04-0.992,1.484l-9.632,10.258
				c-1.061,1.13-0.01,2.948,1.498,2.594l25.713-6.041c1.779-0.418,2.595-2.482,1.583-4.004l-3.021-4.541l-6.268,2.568
				c-1.685,0.69-3.576,0.386-5.055-0.678C431.969,405.855,430.498,405.383,429.435,405.144z"/>
			<path style="fill:#1B2536;" d="M459.447,158.346c-0.013-0.179,5.058-7.068,6.286-10.752c1.228-3.684-1.52-5.772-6.286-5.281
				c0,0,1.926-6.263-3.907-6.141c-5.834,0.123-7.615,1.409-10.685-0.002c-3.07-1.411-7.369-0.182-8.044,3.318
				c-0.675,3.5,3.333,9.795,6.571,13.202C448.048,157.603,459.447,158.346,459.447,158.346z"/>
			<polygon style="fill:#D4B5A5;" points="435.869,239.622 468.662,239.622 463.388,171.294 444.64,171.294 			"/>
			<path style="fill:#415780;" d="M419.27,184.917l-21.719,29.815l-22.925,5.895v23.089l20.512-4.889
				c7.234-1.724,13.798-5.544,18.871-10.982l14.983-16.061l9.403-37.832l-5.38,1.474C427.489,176.94,422.643,180.287,419.27,184.917
				z"/>
			<polygon style="fill:#28364F;" points="394.701,215.464 392.153,239.622 382.327,241.88 384.78,218.016 			"/>
			<path style="fill:#28364F;" d="M414.008,227.845l13.888-14.887l-1.687-21.807l-16.283,40.469
				C411.371,230.468,412.737,229.208,414.008,227.845z"/>
			<g>
				<path style="fill:#415780;" d="M480.409,243.716l-2.211,152.944h-20.938l-5.518-128.955h-4.002l-13.018,55.021l7.846,66.036
					l-20.127,4.705l-13.029-55.357c-2.373-10.081-2.154-20.598,0.635-30.572l17.848-63.822H480.409z"/>
				<polygon style="fill:#28364F;" points="419.148,274.808 447.167,269.974 447.741,267.562 451.743,267.562 451.812,269.173 
					480.11,264.29 480.409,243.716 427.896,243.716 				"/>
				
					<line style="fill:none;stroke:#1B2536;stroke-width:0.6175;stroke-miterlimit:10;" x1="475.415" y1="253.995" x2="473.798" y2="396.66"/>
				<polyline style="fill:none;stroke:#1B2536;stroke-width:0.6175;stroke-miterlimit:10;" points="442.917,265.948 
					429.319,321.662 438.889,389.622 				"/>
				
					<line style="fill:none;stroke:#1B2536;stroke-width:0.6175;stroke-miterlimit:10;" x1="451.743" y1="243.327" x2="451.743" y2="267.705"/>
				<path style="fill:none;stroke:#1B2536;stroke-width:0.6175;stroke-miterlimit:10;" d="M447.065,244.309v9.602
					c0,3.14,1.675,6.042,4.395,7.612l0.283,0.163"/>
				
					<line style="fill:none;stroke:#1B2536;stroke-width:0.6175;stroke-miterlimit:10;" x1="437.977" y1="266.232" x2="459.347" y2="265.004"/>
			</g>
			<rect x="430.854" y="239.622" style="fill:#6E4C2E;" width="41.777" height="5.895"/>
			<rect x="444.407" y="239.622" style="fill:#1B2536;" width="9.994" height="5.895"/>
			<path style="fill:#946351;" d="M456.153,144.891c0,0-2.518,7.185,3.009,9.457l0.921,12.957l-8.965,5.404l-4.483-3.316v-3.869
				c0,0-7.614-1.535-4.605-12.834l-0.246-5.342C441.784,147.348,450.627,148.576,456.153,144.891z"/>
			<g>
				<path style="fill:#946351;" d="M464.275,157.657c-1.214,2.255-3.832,3.202-5.848,2.117c-2.016-1.085-2.665-3.793-1.452-6.047
					c1.214-2.255,3.832-3.202,5.848-2.117C464.839,152.695,465.489,155.403,464.275,157.657z"/>
				<path style="fill:none;stroke:#422424;stroke-width:0.655;stroke-miterlimit:10;" d="M458.107,157.411
					c-0.553-3.439,3.531-6.356,5.281-3.04"/>
				
					<line style="fill:none;stroke:#422424;stroke-width:0.655;stroke-miterlimit:10;" x1="461.29" y1="155.989" x2="459.744" y2="153.455"/>
			</g>
			<path style="fill:none;stroke:#422424;stroke-width:0.655;stroke-miterlimit:10;" d="M447.106,165.667
				c2.477,0.737,6.448,0.512,9.252-1.801"/>
			<path style="fill:#415780;" d="M461.324,169.685l-4.049,80.555c-0.332,6.606,4.934,12.143,11.548,12.143h17.481l-6.059-25.382
				l6.816-41.813c1.019-6.249-2.008-12.462-7.556-15.511L461.324,169.685z"/>
			<polygon style="fill:#28364F;" points="473.859,205.561 480.409,235.016 482.824,220.204 			"/>
			<path style="fill:#415780;" d="M444.711,172.221l-4.897,79.313c-0.377,6.098-5.432,10.85-11.541,10.85h-10.089l8.843-30.13
				l-1.917-41.034c-0.368-7.865,4.768-14.934,12.362-17.014L444.711,172.221z"/>
			<path style="fill:none;stroke:#28364F;stroke-width:0.655;stroke-miterlimit:10;" d="M441.326,174.49l-2.457,3.105
				c-2.892,3.654-3.732,8.525-2.233,12.937l1.894,5.574l-3.234,6.204c-1.774,3.404-2.043,7.394-0.74,11.005l4.957,13.74"/>
			<path style="fill:none;stroke:#28364F;stroke-width:0.655;stroke-miterlimit:10;" d="M463.461,173.369l2.074,3.672
				c2.029,3.593,2.335,7.907,0.833,11.75l-2.907,7.436l2.573,4.338c2.31,3.895,2.55,8.679,0.643,12.786l-6.593,14.193"/>
			
				<line style="fill:none;stroke:#1B2536;stroke-width:0.6175;stroke-miterlimit:10;" x1="424.898" y1="186.894" x2="426.209" y2="214.766"/>
			
				<rect x="424.898" y="243.716" transform="matrix(0.9219 -0.3873 0.3873 0.9219 -61.2504 186.0069)" style="fill:#FFFFFF;" width="11.912" height="2.497"/>
			
				<rect x="462.706" y="243.716" transform="matrix(0.9219 0.3873 -0.3873 0.9219 131.4687 -162.4081)" style="fill:#FFFFFF;" width="11.912" height="2.497"/>
			<polygon style="fill:#FFFFFF;" points="448.815,176.744 451.118,172.709 453.944,176.744 453.022,179.832 455.785,226.194 
				450.135,235.774 444.711,226.194 449.828,179.832 			"/>
			<g>
				<path style="fill:none;stroke:#D65353;stroke-width:2;stroke-miterlimit:10;" d="M498.564,285.614h-2.905
					c-3.731,0-7.29,1.565-9.812,4.315l-8.733,9.522h39.996l-8.733-9.522C505.855,287.179,502.295,285.614,498.564,285.614z"/>
				<rect x="467.473" y="296.913" style="fill:#D65353;" width="59.278" height="20.305"/>
				<rect x="467.473" y="317.218" style="fill:#1B2536;" width="59.278" height="22.268"/>
				<g>
					
						<rect x="512.648" y="312.223" style="fill:none;stroke:#FFFFFF;stroke-width:0.655;stroke-miterlimit:10;" width="3.93" height="18.545"/>
					
						<rect x="477.646" y="312.223" style="fill:none;stroke:#FFFFFF;stroke-width:0.655;stroke-miterlimit:10;" width="3.93" height="18.545"/>
				</g>
			</g>
			<g>
				<path style="fill:#1B2536;" d="M445.146,152.557l0.882,0.265c0.032-0.109,0.054-0.222,0.054-0.342
					c0-0.678-0.55-1.228-1.228-1.228c-0.678,0-1.228,0.55-1.228,1.228s0.55,1.228,1.228,1.228c0.38,0,0.715-0.176,0.94-0.447
					L445.146,152.557z"/>
				<path style="fill:#1B2536;" d="M451.507,152.557l0.882,0.265c0.032-0.109,0.054-0.222,0.054-0.342
					c0-0.678-0.55-1.228-1.228-1.228c-0.678,0-1.228,0.55-1.228,1.228s0.55,1.228,1.228,1.228c0.38,0,0.715-0.176,0.94-0.447
					L451.507,152.557z"/>
			</g>
			<path style="fill:none;stroke:#422424;stroke-width:0.655;stroke-miterlimit:10;" d="M447.331,150.766l0.307,1.945l-0.507,2.439
				c-0.161,0.774,0.43,1.5,1.22,1.5h1.635"/>
			<path style="fill:none;stroke:#422424;stroke-width:0.655;stroke-miterlimit:10;" d="M446.679,158.284
				c0,0,2.569,0.955,5.295-0.873"/>
			<g>
				<path style="fill:none;stroke:#1B2536;stroke-miterlimit:10;" d="M448.942,149.462c0,0,2.087-0.447,3.875,0"/>
				<path style="fill:none;stroke:#1B2536;stroke-miterlimit:10;" d="M442.917,149.462c0,0,2.087-0.447,3.875,0"/>
			</g>
			<polygon style="fill:#B3988B;" points="451.118,172.709 461.107,166.677 464.211,170.684 454.659,177.765 			"/>
			<polygon style="fill:#B3988B;" points="451.118,172.709 448.017,178.143 442.552,172.709 445.407,168.594 			"/>
			<path style="fill:#946351;" d="M492.506,275.872l0.23,2.681l-1.987,4.295c-0.469,1.014,0.271,2.173,1.389,2.173l0,0l-0.212,2.131
				c-0.148,1.487,1.02,2.777,2.515,2.777h6.73c1.549,0,2.733-1.38,2.498-2.911l-1.277-8.323l0.123-2.825H492.506z"/>
			<path style="fill:#415780;" d="M492.055,192.895l13.458,33.21c2.338,5.769,3.329,11.996,2.897,18.206l-2.292,32.974h-16.539
				l-0.819-34.879l-14.901-36.844l4.224-26.665l2.989,1.643C486.046,183.273,489.924,187.636,492.055,192.895z"/>
		</g>
		<path style="fill:#415780;" d="M390.018,312.223H235.886v-98.355c0-4.823,3.91-8.733,8.733-8.733h136.666
			c4.823,0,8.733,3.91,8.733,8.733V312.223z"/>
		<path style="fill:#6E9296;" d="M381.285,419.312H244.619c-4.823,0-8.733-3.91-8.733-8.733v-98.355h154.132v98.355
			C390.018,415.402,386.108,419.312,381.285,419.312z"/>
		<g>
			<g>
				<g>
					<polygon style="fill:#1B2536;" points="273.137,252.041 248.425,252.041 248.425,299.81 285.932,299.81 285.932,264.836 					
						"/>
					<polygon style="fill:#FFFFFF;" points="271.309,250.148 246.597,250.148 246.597,297.918 284.104,297.918 284.104,262.943 
											"/>
					<polygon style="fill:#D9B59E;" points="271.309,250.148 271.309,262.943 284.104,262.943 					"/>
					<rect x="251.253" y="260.747" style="fill:#415780;" width="11.915" height="2.196"/>
					<g>
						<rect x="251.253" y="266.495" style="fill:#415780;" width="28.195" height="1.098"/>
						<rect x="251.253" y="270.377" style="fill:#415780;" width="28.195" height="1.098"/>
						<rect x="251.253" y="274.259" style="fill:#415780;" width="28.195" height="1.098"/>
						<rect x="251.253" y="278.141" style="fill:#415780;" width="28.195" height="1.098"/>
						<rect x="251.253" y="282.022" style="fill:#415780;" width="28.195" height="1.098"/>
						<rect x="251.253" y="285.904" style="fill:#415780;" width="11.915" height="1.098"/>
					</g>
				</g>
			</g>
			<g>
				<g>
					<polygon style="fill:#1B2536;" points="319.825,252.041 295.112,252.041 295.112,299.81 332.62,299.81 332.62,264.836 					"/>
					<polygon style="fill:#FFFFFF;" points="317.997,250.148 293.284,250.148 293.284,297.918 330.792,297.918 330.792,262.943 
											"/>
					<polygon style="fill:#D9B59E;" points="317.997,250.148 317.997,262.943 330.792,262.943 					"/>
					<rect x="297.94" y="260.747" style="fill:#415780;" width="11.915" height="2.196"/>
					<g>
						<rect x="297.94" y="266.495" style="fill:#415780;" width="28.195" height="1.098"/>
						<rect x="297.94" y="270.377" style="fill:#415780;" width="28.195" height="1.098"/>
						<rect x="297.94" y="274.259" style="fill:#415780;" width="28.195" height="1.098"/>
						<rect x="297.94" y="278.141" style="fill:#415780;" width="28.195" height="1.098"/>
						<rect x="297.94" y="282.022" style="fill:#415780;" width="28.195" height="1.098"/>
						<rect x="297.94" y="285.904" style="fill:#415780;" width="11.915" height="1.098"/>
					</g>
				</g>
			</g>
			<g>
				<g>
					<polygon style="fill:#1B2536;" points="366.512,252.041 341.8,252.041 341.8,299.81 379.307,299.81 379.307,264.836 					"/>
					<polygon style="fill:#FFFFFF;" points="364.684,250.148 339.971,250.148 339.971,297.918 377.479,297.918 377.479,262.943 
											"/>
					<polygon style="fill:#D9B59E;" points="364.684,250.148 364.684,262.943 377.479,262.943 					"/>
					<rect x="344.628" y="260.747" style="fill:#415780;" width="11.915" height="2.196"/>
					<g>
						<rect x="344.628" y="266.495" style="fill:#415780;" width="28.195" height="1.098"/>
						<rect x="344.628" y="270.377" style="fill:#415780;" width="28.195" height="1.098"/>
						<rect x="344.628" y="274.259" style="fill:#415780;" width="28.195" height="1.098"/>
						<rect x="344.628" y="278.141" style="fill:#415780;" width="28.195" height="1.098"/>
						<rect x="344.628" y="282.022" style="fill:#415780;" width="28.195" height="1.098"/>
						<rect x="344.628" y="285.904" style="fill:#415780;" width="11.915" height="1.098"/>
					</g>
				</g>
			</g>
		</g>
		<g>
			<g>
				<path style="fill:#496163;" d="M374.307,349.494H254.773c-2.761,0-5-2.239-5-5v-12.37c0-2.761,2.239-5,5-5h119.534
					c2.761,0,5,2.239,5,5v12.37C379.307,347.255,377.068,349.494,374.307,349.494z"/>
				<path style="fill:#FFFFFF;" d="M372.719,347.253H253.185c-2.762,0-5-2.238-5-5v-12.37c0-2.761,2.238-5,5-5h119.534
					c2.761,0,5,2.239,5,5v12.37C377.719,345.014,375.48,347.253,372.719,347.253z"/>
				<g>
					
						<ellipse transform="matrix(0.916 -0.4012 0.4012 0.916 -112.4742 134.964)" style="fill:#D9B59E;" cx="266.054" cy="336.068" rx="7.871" ry="7.871"/>
					<g>
						
							<line style="fill:none;stroke:#28364F;stroke-width:0.75;stroke-linecap:round;stroke-linejoin:round;stroke-miterlimit:10;" x1="279.028" y1="331.583" x2="367.72" y2="331.583"/>
						
							<line style="fill:none;stroke:#28364F;stroke-width:0.75;stroke-linecap:round;stroke-linejoin:round;stroke-miterlimit:10;" x1="279.028" y1="336.068" x2="367.72" y2="336.068"/>
						
							<line style="fill:none;stroke:#28364F;stroke-width:0.75;stroke-linecap:round;stroke-linejoin:round;stroke-miterlimit:10;" x1="279.028" y1="340.552" x2="367.72" y2="340.552"/>
					</g>
				</g>
			</g>
		</g>
		<g>
			<g>
				<path style="fill:#496163;" d="M374.307,378.073H254.773c-2.761,0-5-2.239-5-5v-12.37c0-2.761,2.239-5,5-5h119.534
					c2.761,0,5,2.239,5,5v12.37C379.307,375.835,377.068,378.073,374.307,378.073z"/>
				<path style="fill:#FFFFFF;" d="M372.719,375.832H253.185c-2.762,0-5-2.238-5-5v-12.37c0-2.761,2.238-5,5-5h119.534
					c2.761,0,5,2.239,5,5v12.37C377.719,373.594,375.48,375.832,372.719,375.832z"/>
				<g>
					
						<ellipse transform="matrix(0.916 -0.4012 0.4012 0.916 -123.9395 137.3647)" style="fill:#D9B59E;" cx="266.054" cy="364.647" rx="7.871" ry="7.871"/>
					<g>
						
							<line style="fill:none;stroke:#28364F;stroke-width:0.75;stroke-linecap:round;stroke-linejoin:round;stroke-miterlimit:10;" x1="279.028" y1="360.163" x2="367.72" y2="360.163"/>
						
							<line style="fill:none;stroke:#28364F;stroke-width:0.75;stroke-linecap:round;stroke-linejoin:round;stroke-miterlimit:10;" x1="279.028" y1="364.647" x2="367.72" y2="364.647"/>
						
							<line style="fill:none;stroke:#28364F;stroke-width:0.75;stroke-linecap:round;stroke-linejoin:round;stroke-miterlimit:10;" x1="279.028" y1="369.132" x2="367.72" y2="369.132"/>
					</g>
				</g>
			</g>
		</g>
		<g>
			<g>
				<path style="fill:#496163;" d="M374.307,406.653H254.773c-2.761,0-5-2.239-5-5v-12.37c0-2.761,2.239-5,5-5h119.534
					c2.761,0,5,2.239,5,5v12.37C379.307,404.414,377.068,406.653,374.307,406.653z"/>
				<path style="fill:#FFFFFF;" d="M372.719,404.411H253.185c-2.762,0-5-2.238-5-5v-12.37c0-2.761,2.238-5,5-5h119.534
					c2.761,0,5,2.239,5,5v12.37C377.719,402.173,375.48,404.411,372.719,404.411z"/>
				<g>
					
						<ellipse transform="matrix(0.916 -0.4012 0.4012 0.916 -135.4049 139.7653)" style="fill:#D9B59E;" cx="266.054" cy="393.227" rx="7.871" ry="7.871"/>
					<g>
						
							<line style="fill:none;stroke:#28364F;stroke-width:0.75;stroke-linecap:round;stroke-linejoin:round;stroke-miterlimit:10;" x1="279.028" y1="388.742" x2="367.72" y2="388.742"/>
						
							<line style="fill:none;stroke:#28364F;stroke-width:0.75;stroke-linecap:round;stroke-linejoin:round;stroke-miterlimit:10;" x1="279.028" y1="393.227" x2="367.72" y2="393.227"/>
						
							<line style="fill:none;stroke:#28364F;stroke-width:0.75;stroke-linecap:round;stroke-linejoin:round;stroke-miterlimit:10;" x1="279.028" y1="397.711" x2="367.72" y2="397.711"/>
					</g>
				</g>
			</g>
		</g>
		<g>
			<path style="fill:#D65353;" d="M396.846,344.588h-40.648c-2.544,0-4.607-2.063-4.607-4.607v-28.367
				c0-2.544,2.063-4.607,4.607-4.607h40.648c2.544,0,4.607,2.063,4.607,4.607v28.367
				C401.453,342.525,399.391,344.588,396.846,344.588z"/>
			<rect x="356.258" y="311.328" style="fill:#FFFFFF;" width="40.529" height="27.756"/>
			<g>
				
					<line style="fill:none;stroke:#415780;stroke-width:0.8713;stroke-miterlimit:10;" x1="373.616" y1="315.176" x2="393.266" y2="315.176"/>
				
					<line style="fill:none;stroke:#415780;stroke-width:0.8713;stroke-miterlimit:10;" x1="373.616" y1="318.943" x2="393.266" y2="318.943"/>
			</g>
			<path style="fill:#EBBC3B;" d="M370.15,323.259l-1.887-6.316c-0.582-1.948-2.374-3.283-4.407-3.283H346.53
				c-2.308,0-3.62,1.871-2.931,4.179l6.743,22.568c0.69,2.308,3.12,4.179,5.428,4.179h41.504c2.308,0,3.62-1.871,2.931-4.179
				l-4.143-13.867c-0.582-1.948-2.374-3.283-4.407-3.283H370.15z"/>
		</g>
		<g>
			<path style="fill:none;stroke:#BEDCE0;stroke-width:1.1437;stroke-miterlimit:10;" d="M533.574,119.1h-44.431
				c-4.823,0-8.734,3.91-8.734,8.733v15.607c0,0.525-0.249,1.018-0.672,1.329l-8.847,6.507c-0.706,0.519-0.339,1.639,0.538,1.639
				h7.332c0.911,0,1.649,0.739,1.649,1.65v10.071c0,4.823,3.91,8.733,8.734,8.733h44.431c4.823,0,8.733-3.91,8.733-8.733v-36.802
				C542.307,123.01,538.397,119.1,533.574,119.1z"/>
			<g>
				
					<polyline style="fill:none;stroke:#4A75C9;stroke-width:1.144;stroke-linecap:round;stroke-linejoin:round;stroke-miterlimit:10;" points="
					522.903,130.807 527.447,135.351 533.751,129.047 				"/>
				<path style="fill:#EBBC3B;" d="M517.499,134.936h-27.428c-0.995,0-1.801-0.806-1.801-1.801l0,0c0-0.995,0.806-1.801,1.801-1.801
					h27.428c0.995,0,1.801,0.806,1.801,1.801l0,0C519.3,134.129,518.494,134.936,517.499,134.936z"/>
				
					<polyline style="fill:none;stroke:#4A75C9;stroke-width:1.144;stroke-linecap:round;stroke-linejoin:round;stroke-miterlimit:10;" points="
					522.903,144.843 527.447,149.387 533.751,143.082 				"/>
				<path style="fill:#EBBC3B;" d="M517.499,148.971h-27.428c-0.995,0-1.801-0.807-1.801-1.801l0,0c0-0.995,0.806-1.801,1.801-1.801
					h27.428c0.995,0,1.801,0.806,1.801,1.801l0,0C519.3,148.165,518.494,148.971,517.499,148.971z"/>
				
					<polyline style="fill:none;stroke:#4A75C9;stroke-width:1.144;stroke-linecap:round;stroke-linejoin:round;stroke-miterlimit:10;" points="
					522.903,158.878 527.447,163.423 533.751,157.118 				"/>
				<path style="fill:#EBBC3B;" d="M517.499,163.007h-27.428c-0.995,0-1.801-0.806-1.801-1.801v0c0-0.995,0.806-1.801,1.801-1.801
					h27.428c0.995,0,1.801,0.806,1.801,1.801v0C519.3,162.201,518.494,163.007,517.499,163.007z"/>
			</g>
		</g>
		<path style="fill:#BEDCE0;" d="M399.678,114.843h72.722c2.614,0,4.733-2.119,4.733-4.733V98.621
			c0-18.34-15.72-31.768-31.223-16.539c-13.318-12.773-29.038-0.491-29.038,11.463c-10.695-3.616-19.873,2.751-21.868,15.792
			C394.563,112.224,396.757,114.843,399.678,114.843z"/>
		<g>
			<path style="fill:#EBBC3B;" d="M373.139,237.979H236.473c-4.823,0-8.733-3.91-8.733-8.733v-89.622
				c0-4.823,3.91-8.734,8.733-8.734h136.666c4.823,0,8.733,3.91,8.733,8.734v89.622
				C381.872,234.068,377.962,237.979,373.139,237.979z"/>
			<g>
				<circle style="fill:#FFFFFF;" cx="277.053" cy="184.434" r="38.785"/>
				<path style="fill:#D65353;" d="M315.131,177.071c-3.441-17.898-19.176-31.421-38.078-31.421v38.785L315.131,177.071z"/>
				<path style="fill:#4A75C9;" d="M315.838,184.434c0-2.519-0.249-4.979-0.707-7.364l-38.078,7.364l3.818,38.596
					C300.499,221.112,315.838,204.566,315.838,184.434z"/>
				<path style="fill:#6E9296;" d="M277.053,184.434l-36.602-12.83c-1.408,4.017-2.182,8.332-2.182,12.83
					c0,21.42,17.365,38.785,38.785,38.785c1.289,0,2.562-0.066,3.818-0.189L277.053,184.434z"/>
				<path style="fill:#415780;" d="M240.451,171.604l36.602,12.83l-29.986-24.597C244.218,163.306,241.966,167.282,240.451,171.604z
					"/>
			</g>
			<g>
				<path style="fill:#D65353;" d="M329.627,158.391c0,2.329-1.888,4.217-4.217,4.217c-2.329,0-4.217-1.888-4.217-4.217
					c0-2.329,1.888-4.217,4.217-4.217C327.739,154.174,329.627,156.062,329.627,158.391z"/>
				
					<line style="fill:none;stroke:#FFFFFF;stroke-width:0.8416;stroke-miterlimit:10;" x1="332.366" y1="158.391" x2="364.924" y2="158.391"/>
				<path style="fill:#4A75C9;" d="M329.627,171.413c0,2.329-1.888,4.216-4.217,4.216c-2.329,0-4.217-1.888-4.217-4.216
					c0-2.329,1.888-4.217,4.217-4.217C327.739,167.196,329.627,169.084,329.627,171.413z"/>
				
					<line style="fill:none;stroke:#FFFFFF;stroke-width:0.8416;stroke-miterlimit:10;" x1="332.366" y1="171.413" x2="364.924" y2="171.413"/>
				<path style="fill:#6E9296;" d="M329.627,184.434c0,2.329-1.888,4.216-4.217,4.216c-2.329,0-4.217-1.888-4.217-4.216
					c0-2.329,1.888-4.217,4.217-4.217C327.739,180.218,329.627,182.105,329.627,184.434z"/>
				
					<line style="fill:none;stroke:#FFFFFF;stroke-width:0.8416;stroke-miterlimit:10;" x1="332.366" y1="184.434" x2="364.924" y2="184.434"/>
				<path style="fill:#415780;" d="M329.627,197.456c0,2.329-1.888,4.216-4.217,4.216c-2.329,0-4.217-1.888-4.217-4.216
					c0-2.329,1.888-4.217,4.217-4.217C327.739,193.239,329.627,195.127,329.627,197.456z"/>
				
					<line style="fill:none;stroke:#FFFFFF;stroke-width:0.8416;stroke-miterlimit:10;" x1="332.366" y1="197.456" x2="364.924" y2="197.456"/>
				<path style="fill:#FFFFFF;" d="M329.627,210.478c0,2.329-1.888,4.217-4.217,4.217c-2.329,0-4.217-1.888-4.217-4.217
					c0-2.329,1.888-4.217,4.217-4.217C327.739,206.261,329.627,208.149,329.627,210.478z"/>
				
					<line style="fill:none;stroke:#FFFFFF;stroke-width:0.8416;stroke-miterlimit:10;" x1="332.366" y1="210.478" x2="364.924" y2="210.478"/>
			</g>
		</g>
		<g>
			<g>
				<path style="fill:#DE6767;" d="M118.98,210.051l9.231-0.648c0.921-0.065,1.728,0.611,1.826,1.529l0.624,5.85
					c0.129,1.213-0.821,2.27-2.041,2.27h-8.137c-1.021,0-1.887-0.751-2.032-1.762l-0.799-5.596
					C117.535,210.864,118.145,210.109,118.98,210.051z"/>
				<g>
					
						<line style="fill:none;stroke:#6E3C3C;stroke-width:0.5;stroke-miterlimit:10;" x1="120.018" y1="211.312" x2="121.519" y2="219.051"/>
					
						<line style="fill:none;stroke:#6E3C3C;stroke-width:0.5;stroke-miterlimit:10;" x1="123.256" y1="211.312" x2="124.758" y2="219.051"/>
					
						<line style="fill:none;stroke:#6E3C3C;stroke-width:0.5;stroke-miterlimit:10;" x1="126.495" y1="211.312" x2="127.996" y2="219.051"/>
				</g>
			</g>
			<g>
				<path style="fill:#DE6767;" d="M219.088,210.051l-9.231-0.648c-0.921-0.065-1.728,0.611-1.826,1.529l-0.624,5.85
					c-0.129,1.213,0.821,2.27,2.041,2.27h8.137c1.021,0,1.887-0.751,2.032-1.762l0.799-5.596
					C220.533,210.864,219.923,210.109,219.088,210.051z"/>
				<g>
					
						<line style="fill:none;stroke:#6E3C3C;stroke-width:0.5;stroke-miterlimit:10;" x1="218.05" y1="211.312" x2="216.549" y2="219.051"/>
					
						<line style="fill:none;stroke:#6E3C3C;stroke-width:0.5;stroke-miterlimit:10;" x1="214.811" y1="211.312" x2="213.31" y2="219.051"/>
					
						<line style="fill:none;stroke:#6E3C3C;stroke-width:0.5;stroke-miterlimit:10;" x1="211.573" y1="211.312" x2="210.071" y2="219.051"/>
				</g>
			</g>
		</g>
		<g>
			
				<rect x="390.853" y="133.473" transform="matrix(0.7071 -0.7071 0.7071 0.7071 6.4042 324.3284)" style="fill:#4A75C9;" width="7.696" height="41.921"/>
			<path style="fill:#1B2536;" d="M377.159,142.333l2.964,2.964c2.344-1.032,4.543-2.501,6.463-4.422l-3.984-3.984L377.159,142.333z
				"/>
			
				<rect x="396.333" y="146.704" transform="matrix(0.7071 -0.7071 0.7071 0.7071 4.1342 329.8088)" style="fill:#1B2536;" width="7.696" height="26.419"/>
			<circle style="fill:#4A75C9;" cx="366.304" cy="126.036" r="21.247"/>
			<path style="fill:#FFFFFF;" d="M377.569,114.771c6.221,6.222,6.221,16.309,0,22.53c-6.222,6.222-16.309,6.222-22.53,0
				c-6.221-6.222-6.221-16.309,0-22.53C361.26,108.549,371.347,108.549,377.569,114.771z"/>
			<g>
				<path style="fill:none;stroke:#BEDCE0;stroke-width:1.7467;stroke-miterlimit:10;" d="M357.405,134.935
					c-0.402-0.402-0.771-0.824-1.107-1.264"/>
				<path style="fill:none;stroke:#BEDCE0;stroke-width:1.7467;stroke-miterlimit:10;" d="M354.689,130.89
					c-1.907-4.569-1.002-10.034,2.716-13.752"/>
			</g>
		</g>
		<g>
			<path style="fill:#6E9296;" d="M239.201,145.141h-36.41c-1.427,0-2.8,0.543-3.84,1.518l-8.032,7.527
				c-1.045,0.979-2.754,0.238-2.754-1.193v-50.865c0-4.823,3.91-8.733,8.733-8.733h42.303c4.823,0,8.733,3.91,8.733,8.733v34.279
				C247.935,141.231,244.025,145.141,239.201,145.141z"/>
			<g>
				<path style="fill:none;stroke:#FFFFFF;stroke-width:0.6815;stroke-miterlimit:10;" d="M236.44,107.51H199.66
					c-0.967,0-1.752-0.784-1.752-1.752l0,0c0-0.967,0.784-1.752,1.752-1.752h36.779c0.967,0,1.752,0.784,1.752,1.752l0,0
					C238.191,106.726,237.407,107.51,236.44,107.51z"/>
				<path style="fill:none;stroke:#FFFFFF;stroke-width:0.6815;stroke-miterlimit:10;" d="M236.44,116.517H199.66
					c-0.967,0-1.752-0.784-1.752-1.752l0,0c0-0.967,0.784-1.752,1.752-1.752h36.779c0.967,0,1.752,0.784,1.752,1.752l0,0
					C238.191,115.732,237.407,116.517,236.44,116.517z"/>
				<path style="fill:none;stroke:#FFFFFF;stroke-width:0.6815;stroke-miterlimit:10;" d="M236.44,125.523H199.66
					c-0.967,0-1.752-0.784-1.752-1.752l0,0c0-0.968,0.784-1.752,1.752-1.752h36.779c0.967,0,1.752,0.784,1.752,1.752l0,0
					C238.191,124.739,237.407,125.523,236.44,125.523z"/>
				<path style="fill:none;stroke:#FFFFFF;stroke-width:0.6815;stroke-miterlimit:10;" d="M236.44,134.529H199.66
					c-0.967,0-1.752-0.784-1.752-1.752l0,0c0-0.967,0.784-1.752,1.752-1.752h36.779c0.967,0,1.752,0.784,1.752,1.752l0,0
					C238.191,133.745,237.407,134.529,236.44,134.529z"/>
			</g>
		</g>
	</g>
</g>
</svg>
